# xmcd
#
# Track frame offsets:
#	150
#	17351
#	32021
#	44623
#	62406
#	75273
#	89846
#	101509
#	114684
#	130602
#
# Disc length: 1928 seconds
#
# Revision: 0
# Processed by: cddbd v1.5.2PL0 Copyright (c) Steve Scherf et al.
# Submitted via: EZCDAudioConverter 1.3.4.1
#
DISCID=7307860a
DTITLE=Tiny Tim - Prisoner Of Love
DYEAR=1900
DGENRE=
TTITLE0=You Try Somebody Else
TTITLE1=Time On My Hands
TTITLE2=All Of Me
TTITLE3=Sweet And Lovely
TTITLE4=More Than You Know
TTITLE5=Paradise
TTITLE6=Just Friends
TTITLE7=Save The Last Dance For Me
TTITLE8=Prisoner Of Love
TTITLE9=Auf Wiedersehen, My Dear
EXTD=
EXTT0=
EXTT1=
EXTT2=
EXTT3=
EXTT4=
EXTT5=
EXTT6=
EXTT7=
EXTT8=
EXTT9=
PLAYORDER=
